<svg width="40" height="30" viewBox="0 0 40 30" fill="none" xmlns="http://www.w3.org/2000/svg">
<path d="M11.1111 26.25C9.33333 26.25 7.55556 24.9375 6.66667 24.375C2.22222 21.75 0.888889 20.8125 0 20.25V28.125C0 29.1604 0.995139 30 2.22222 30H20C21.2271 30 22.2222 29.1604 22.2222 28.125V20.25C21.3333 20.8125 20 21.75 15.5556 24.375C14.6667 24.9375 12.8889 26.25 11.1111 26.25ZM20 15H2.22222C0.995139 15 0 15.8396 0 16.875V17.8125C1.77778 18.9375 1.55556 18.9375 8 22.875C8.66667 23.25 10 24.375 11.1111 24.375C12.2222 24.375 13.5556 23.25 14.2222 23.0625C20.6667 19.125 20.4444 19.125 22.2222 18V16.875C22.2222 15.8396 21.2271 15 20 15ZM37.7778 9.375H15.5556C14.3285 9.375 13.3333 10.2146 13.3333 11.25V13.125H20C22.3063 13.125 24.2076 14.6145 24.4243 16.5129L24.4444 16.5V24.375H37.7778C39.0049 24.375 40 23.5354 40 22.5V11.25C40 10.2146 39.0049 9.375 37.7778 9.375ZM35.5556 16.875H31.1111V13.125H35.5556V16.875ZM11.1111 11.25C11.1111 9.18223 13.1049 7.5 15.5556 7.5H31.1111V1.875C31.1111 0.839648 30.116 0 28.8889 0H6.66667C5.43958 0 4.44444 0.839648 4.44444 1.875V13.125H11.1111V11.25Z" fill="black"/>
</svg>
