<svg width="30" height="30" viewBox="0 0 30 30" fill="none" xmlns="http://www.w3.org/2000/svg">
<path d="M26.7857 13.125H25.1786V8.90625C25.1786 3.99609 20.6116 0 15 0C9.38839 0 4.82143 3.99609 4.82143 8.90625V13.125H3.21429C1.43973 13.125 0 14.3848 0 15.9375V27.1875C0 28.7402 1.43973 30 3.21429 30H26.7857C28.5603 30 30 28.7402 30 27.1875V15.9375C30 14.3848 28.5603 13.125 26.7857 13.125ZM19.8214 13.125H10.1786V8.90625C10.1786 6.58008 12.3415 4.6875 15 4.6875C17.6585 4.6875 19.8214 6.58008 19.8214 8.90625V13.125Z" fill="black"/>
</svg>
